<?xml version="1.0" encoding="UTF-8" standalone="no"?>
<!DOCTYPE svg PUBLIC "-//W3C//DTD SVG 1.1//EN"
 "http://www.w3.org/Graphics/SVG/1.1/DTD/svg11.dtd">
<!-- Generated by graphviz version 7.0.4 (20221203.1631)
 -->
<!-- Pages: 1 -->
<svg width="332pt" height="124pt"
 viewBox="0.00 0.00 332.00 124.00" xmlns="http://www.w3.org/2000/svg" xmlns:xlink="http://www.w3.org/1999/xlink">
<g id="graph0" class="graph" transform="scale(1 1) rotate(0) translate(4 120)">
<polygon fill="white" stroke="none" points="-4,4 -4,-120 328,-120 328,4 -4,4"/>
<!-- 1478818065920 -->
<g id="node1" class="node">
<title>1478818065920</title>
<polygon fill="none" stroke="black" points="90,-0.5 90,-36.5 144,-36.5 144,-0.5 90,-0.5"/>
<text text-anchor="middle" x="117" y="-14.8" font-family="Times New Roman,serif" font-size="14.00">*</text>
</g>
<!-- 1478830636384 -->
<g id="node4" class="node">
<title>1478830636384</title>
<polygon fill="none" stroke="black" points="180,-24.5 180,-60.5 234,-60.5 234,-24.5 180,-24.5"/>
<text text-anchor="middle" x="207" y="-38.8" font-family="Times New Roman,serif" font-size="14.00">Delay</text>
</g>
<!-- 1478818065920&#45;&gt;1478830636384 -->
<g id="edge3" class="edge">
<title>1478818065920&#45;&gt;1478830636384</title>
<path fill="none" stroke="black" d="M143.93,-25.57C151.89,-27.74 160.82,-30.18 169.36,-32.51"/>
<polygon fill="black" stroke="black" points="168.23,-35.83 178.8,-35.08 170.07,-29.07 168.23,-35.83"/>
</g>
<!-- 1478818054208 -->
<g id="node2" class="node">
<title>1478818054208</title>
<polygon fill="none" stroke="red" points="270,-24.5 270,-60.5 324,-60.5 324,-24.5 270,-24.5"/>
<text text-anchor="middle" x="297" y="-38.8" font-family="Times New Roman,serif" font-size="14.00">+</text>
</g>
<!-- 1478818054208&#45;&gt;1478818065920 -->
<g id="edge1" class="edge">
<title>1478818054208&#45;&gt;1478818065920</title>
<path fill="none" stroke="black" d="M270.3,-27.94C259.45,-22.59 246.47,-17.19 234,-14.5 208,-8.9 177.97,-10.14 154.98,-12.65"/>
<polygon fill="black" stroke="black" points="154.66,-9.17 145.16,-13.87 155.52,-16.11 154.66,-9.17"/>
</g>
<!-- 1478830631728 -->
<g id="node3" class="node">
<title>1478830631728</title>
<polygon fill="none" stroke="blue" points="180,-79.5 180,-115.5 234,-115.5 234,-79.5 180,-79.5"/>
<text text-anchor="middle" x="207" y="-93.8" font-family="Times New Roman,serif" font-size="14.00">Wave</text>
</g>
<!-- 1478830631728&#45;&gt;1478818054208 -->
<g id="edge4" class="edge">
<title>1478830631728&#45;&gt;1478818054208</title>
<path fill="none" stroke="black" d="M233.93,-81.3C242.25,-76.09 251.62,-70.24 260.51,-64.68"/>
<polygon fill="black" stroke="black" points="262.35,-67.66 268.97,-59.39 258.64,-61.72 262.35,-67.66"/>
</g>
<!-- 1478830636384&#45;&gt;1478818054208 -->
<g id="edge5" class="edge">
<title>1478830636384&#45;&gt;1478818054208</title>
<path fill="none" stroke="black" d="M233.93,-42.5C241.71,-42.5 250.42,-42.5 258.78,-42.5"/>
<polygon fill="black" stroke="black" points="258.74,-46 268.74,-42.5 258.74,-39 258.74,-46"/>
</g>
<!-- 1478818055024 -->
<g id="node5" class="node">
<title>1478818055024</title>
<polygon fill="none" stroke="blue" points="0,-0.5 0,-36.5 54,-36.5 54,-0.5 0,-0.5"/>
<text text-anchor="middle" x="27" y="-14.8" font-family="Times New Roman,serif" font-size="14.00">Wave</text>
</g>
<!-- 1478818055024&#45;&gt;1478818065920 -->
<g id="edge2" class="edge">
<title>1478818055024&#45;&gt;1478818065920</title>
<path fill="none" stroke="black" d="M53.93,-18.5C61.71,-18.5 70.42,-18.5 78.78,-18.5"/>
<polygon fill="black" stroke="black" points="78.74,-22 88.74,-18.5 78.74,-15 78.74,-22"/>
</g>
</g>
</svg>
