<?xml version="1.0" encoding="UTF-8" standalone="no"?>
<!DOCTYPE svg PUBLIC "-//W3C//DTD SVG 1.1//EN"
 "http://www.w3.org/Graphics/SVG/1.1/DTD/svg11.dtd">
<!-- Generated by graphviz version 7.0.4 (20221203.1631)
 -->
<!-- Pages: 1 -->
<svg width="526pt" height="320pt"
 viewBox="0.00 0.00 526.00 320.00" xmlns="http://www.w3.org/2000/svg" xmlns:xlink="http://www.w3.org/1999/xlink">
<g id="graph0" class="graph" transform="scale(1 1) rotate(0) translate(4 316)">
<polygon fill="white" stroke="none" points="-4,4 -4,-316 522,-316 522,4 -4,4"/>
<!-- 1712771860992 -->
<g id="node1" class="node">
<title>1712771860992</title>
<polygon fill="none" stroke="gainsboro" points="0,-110.5 0,-146.5 54,-146.5 54,-110.5 0,-110.5"/>
<text text-anchor="middle" x="27" y="-124.8" font-family="Times New Roman,serif" font-size="14.00" fill="gainsboro">0.5</text>
</g>
<!-- 1712819650176 -->
<g id="node5" class="node">
<title>1712819650176</title>
<polygon fill="none" stroke="black" points="90,-110.5 90,-146.5 144,-146.5 144,-110.5 90,-110.5"/>
<text text-anchor="middle" x="117" y="-124.8" font-family="Times New Roman,serif" font-size="14.00">*</text>
</g>
<!-- 1712771860992&#45;&gt;1712819650176 -->
<g id="edge3" class="edge">
<title>1712771860992&#45;&gt;1712819650176</title>
<path fill="none" stroke="gainsboro" d="M53.93,-128.5C61.71,-128.5 70.42,-128.5 78.78,-128.5"/>
<polygon fill="gainsboro" stroke="gainsboro" points="78.74,-132 88.74,-128.5 78.74,-125 78.74,-132"/>
</g>
<!-- 1712824289840 -->
<g id="node2" class="node">
<title>1712824289840</title>
<polygon fill="none" stroke="black" points="180,-192.5 180,-228.5 234,-228.5 234,-192.5 180,-192.5"/>
<text text-anchor="middle" x="207" y="-206.8" font-family="Times New Roman,serif" font-size="14.00">Sub</text>
</g>
<!-- 1712824289216 -->
<g id="node17" class="node">
<title>1712824289216</title>
<polygon fill="none" stroke="black" points="277,-137.5 277,-173.5 331,-173.5 331,-137.5 277,-137.5"/>
<text text-anchor="middle" x="304" y="-151.8" font-family="Times New Roman,serif" font-size="14.00">*</text>
</g>
<!-- 1712824289840&#45;&gt;1712824289216 -->
<g id="edge10" class="edge">
<title>1712824289840&#45;&gt;1712824289216</title>
<path fill="none" stroke="black" d="M233.96,-195.47C244.22,-189.53 256.19,-182.6 267.25,-176.2"/>
<polygon fill="black" stroke="black" points="268.86,-179.31 275.76,-171.27 265.35,-173.25 268.86,-179.31"/>
</g>
<!-- 1712771861568 -->
<g id="node3" class="node">
<title>1712771861568</title>
<polygon fill="none" stroke="gainsboro" points="0,-275.5 0,-311.5 54,-311.5 54,-275.5 0,-275.5"/>
<text text-anchor="middle" x="27" y="-289.8" font-family="Times New Roman,serif" font-size="14.00" fill="gainsboro">0.5</text>
</g>
<!-- 1712771860704 -->
<g id="node9" class="node">
<title>1712771860704</title>
<polygon fill="none" stroke="black" points="90,-220.5 90,-256.5 144,-256.5 144,-220.5 90,-220.5"/>
<text text-anchor="middle" x="117" y="-234.8" font-family="Times New Roman,serif" font-size="14.00">*</text>
</g>
<!-- 1712771861568&#45;&gt;1712771860704 -->
<g id="edge4" class="edge">
<title>1712771861568&#45;&gt;1712771860704</title>
<path fill="none" stroke="gainsboro" d="M53.93,-277.3C62.25,-272.09 71.62,-266.24 80.51,-260.68"/>
<polygon fill="gainsboro" stroke="gainsboro" points="82.35,-263.66 88.97,-255.39 78.64,-257.72 82.35,-263.66"/>
</g>
<!-- 1712771861616 -->
<g id="node4" class="node">
<title>1712771861616</title>
<polygon fill="none" stroke="blue" points="0,-55.5 0,-91.5 54,-91.5 54,-55.5 0,-55.5"/>
<text text-anchor="middle" x="27" y="-69.8" font-family="Times New Roman,serif" font-size="14.00">Wave</text>
</g>
<!-- 1712771861616&#45;&gt;1712819650176 -->
<g id="edge8" class="edge">
<title>1712771861616&#45;&gt;1712819650176</title>
<path fill="none" stroke="black" d="M53.93,-89.7C62.25,-94.91 71.62,-100.76 80.51,-106.32"/>
<polygon fill="black" stroke="black" points="78.64,-109.28 88.97,-111.61 82.35,-103.34 78.64,-109.28"/>
</g>
<!-- 1712824287920 -->
<g id="node8" class="node">
<title>1712824287920</title>
<polygon fill="none" stroke="black" points="90,-55.5 90,-91.5 144,-91.5 144,-55.5 90,-55.5"/>
<text text-anchor="middle" x="117" y="-69.8" font-family="Times New Roman,serif" font-size="14.00">*</text>
</g>
<!-- 1712771861616&#45;&gt;1712824287920 -->
<g id="edge6" class="edge">
<title>1712771861616&#45;&gt;1712824287920</title>
<path fill="none" stroke="black" d="M53.93,-73.5C61.71,-73.5 70.42,-73.5 78.78,-73.5"/>
<polygon fill="black" stroke="black" points="78.74,-77 88.74,-73.5 78.74,-70 78.74,-77"/>
</g>
<!-- 1712819650176&#45;&gt;1712824289840 -->
<g id="edge19" class="edge">
<title>1712819650176&#45;&gt;1712824289840</title>
<path fill="none" stroke="black" d="M137.09,-146.29C149.32,-157.68 165.37,-172.64 178.9,-185.25"/>
<polygon fill="black" stroke="black" points="176.13,-187.45 185.84,-191.71 180.91,-182.33 176.13,-187.45"/>
</g>
<!-- 1712824287872 -->
<g id="node6" class="node">
<title>1712824287872</title>
<polygon fill="none" stroke="gainsboro" points="180,-137.5 180,-173.5 234,-173.5 234,-137.5 180,-137.5"/>
<text text-anchor="middle" x="207" y="-151.8" font-family="Times New Roman,serif" font-size="14.00" fill="gainsboro">0.5</text>
</g>
<!-- 1712824287872&#45;&gt;1712824289216 -->
<g id="edge9" class="edge">
<title>1712824287872&#45;&gt;1712824289216</title>
<path fill="none" stroke="gainsboro" d="M233.96,-155.5C243.8,-155.5 255.21,-155.5 265.89,-155.5"/>
<polygon fill="gainsboro" stroke="gainsboro" points="265.56,-159 275.56,-155.5 265.56,-152 265.56,-159"/>
</g>
<!-- 1712824290464 -->
<g id="node7" class="node">
<title>1712824290464</title>
<polygon fill="none" stroke="black" points="90,-165.5 90,-201.5 144,-201.5 144,-165.5 90,-165.5"/>
<text text-anchor="middle" x="117" y="-179.8" font-family="Times New Roman,serif" font-size="14.00">*</text>
</g>
<!-- 1712824288688 -->
<g id="node16" class="node">
<title>1712824288688</title>
<polygon fill="none" stroke="black" points="180,-82.5 180,-118.5 234,-118.5 234,-82.5 180,-82.5"/>
<text text-anchor="middle" x="207" y="-96.8" font-family="Times New Roman,serif" font-size="14.00">+</text>
</g>
<!-- 1712824290464&#45;&gt;1712824288688 -->
<g id="edge13" class="edge">
<title>1712824290464&#45;&gt;1712824288688</title>
<path fill="none" stroke="black" d="M136.66,-165.9C148.95,-154.31 165.23,-138.96 178.92,-126.04"/>
<polygon fill="black" stroke="black" points="181.09,-128.81 185.96,-119.4 176.28,-123.72 181.09,-128.81"/>
</g>
<!-- 1712824287920&#45;&gt;1712824288688 -->
<g id="edge15" class="edge">
<title>1712824287920&#45;&gt;1712824288688</title>
<path fill="none" stroke="black" d="M143.93,-81.45C151.89,-83.9 160.82,-86.64 169.36,-89.26"/>
<polygon fill="black" stroke="black" points="168.22,-92.57 178.81,-92.16 170.28,-85.88 168.22,-92.57"/>
</g>
<!-- 1712771860704&#45;&gt;1712824289840 -->
<g id="edge18" class="edge">
<title>1712771860704&#45;&gt;1712824289840</title>
<path fill="none" stroke="black" d="M143.93,-230.25C151.89,-227.72 160.82,-224.88 169.36,-222.16"/>
<polygon fill="black" stroke="black" points="170.35,-225.52 178.82,-219.15 168.23,-218.85 170.35,-225.52"/>
</g>
<!-- 1712824287968 -->
<g id="node10" class="node">
<title>1712824287968</title>
<polygon fill="none" stroke="gainsboro" points="0,-165.5 0,-201.5 54,-201.5 54,-165.5 0,-165.5"/>
<text text-anchor="middle" x="27" y="-179.8" font-family="Times New Roman,serif" font-size="14.00" fill="gainsboro">0.5</text>
</g>
<!-- 1712824287968&#45;&gt;1712824290464 -->
<g id="edge17" class="edge">
<title>1712824287968&#45;&gt;1712824290464</title>
<path fill="none" stroke="gainsboro" d="M53.93,-183.5C61.71,-183.5 70.42,-183.5 78.78,-183.5"/>
<polygon fill="gainsboro" stroke="gainsboro" points="78.74,-187 88.74,-183.5 78.74,-180 78.74,-187"/>
</g>
<!-- 1712771600672 -->
<g id="node11" class="node">
<title>1712771600672</title>
<polygon fill="none" stroke="blue" points="0,-220.5 0,-256.5 54,-256.5 54,-220.5 0,-220.5"/>
<text text-anchor="middle" x="27" y="-234.8" font-family="Times New Roman,serif" font-size="14.00">Wave</text>
</g>
<!-- 1712771600672&#45;&gt;1712824290464 -->
<g id="edge7" class="edge">
<title>1712771600672&#45;&gt;1712824290464</title>
<path fill="none" stroke="black" d="M53.93,-222.3C62.25,-217.09 71.62,-211.24 80.51,-205.68"/>
<polygon fill="black" stroke="black" points="82.35,-208.66 88.97,-200.39 78.64,-202.72 82.35,-208.66"/>
</g>
<!-- 1712771600672&#45;&gt;1712771860704 -->
<g id="edge16" class="edge">
<title>1712771600672&#45;&gt;1712771860704</title>
<path fill="none" stroke="black" d="M53.93,-238.5C61.71,-238.5 70.42,-238.5 78.78,-238.5"/>
<polygon fill="black" stroke="black" points="78.74,-242 88.74,-238.5 78.74,-235 78.74,-242"/>
</g>
<!-- 1712824288592 -->
<g id="node12" class="node">
<title>1712824288592</title>
<polygon fill="none" stroke="gainsboro" points="0,-0.5 0,-36.5 54,-36.5 54,-0.5 0,-0.5"/>
<text text-anchor="middle" x="27" y="-14.8" font-family="Times New Roman,serif" font-size="14.00" fill="gainsboro">0.5</text>
</g>
<!-- 1712824288592&#45;&gt;1712824287920 -->
<g id="edge11" class="edge">
<title>1712824288592&#45;&gt;1712824287920</title>
<path fill="none" stroke="gainsboro" d="M53.93,-34.7C62.25,-39.91 71.62,-45.76 80.51,-51.32"/>
<polygon fill="gainsboro" stroke="gainsboro" points="78.64,-54.28 88.97,-56.61 82.35,-48.34 78.64,-54.28"/>
</g>
<!-- 1712824289120 -->
<g id="node13" class="node">
<title>1712824289120</title>
<polygon fill="none" stroke="black" points="270,-82.5 270,-118.5 338,-118.5 338,-82.5 270,-82.5"/>
<text text-anchor="middle" x="304" y="-96.8" font-family="Times New Roman,serif" font-size="14.00">Lowpass</text>
</g>
<!-- 1712824288640 -->
<g id="node14" class="node">
<title>1712824288640</title>
<polygon fill="none" stroke="black" points="374,-82.5 374,-118.5 428,-118.5 428,-82.5 374,-82.5"/>
<text text-anchor="middle" x="401" y="-96.8" font-family="Times New Roman,serif" font-size="14.00">*</text>
</g>
<!-- 1712824289120&#45;&gt;1712824288640 -->
<g id="edge14" class="edge">
<title>1712824289120&#45;&gt;1712824288640</title>
<path fill="none" stroke="black" d="M337.96,-100.5C346.05,-100.5 354.75,-100.5 363.02,-100.5"/>
<polygon fill="black" stroke="black" points="362.77,-104 372.77,-100.5 362.77,-97 362.77,-104"/>
</g>
<!-- 1712824289264 -->
<g id="node18" class="node">
<title>1712824289264</title>
<polygon fill="none" stroke="red" points="464,-105.5 464,-141.5 518,-141.5 518,-105.5 464,-105.5"/>
<text text-anchor="middle" x="491" y="-119.8" font-family="Times New Roman,serif" font-size="14.00">+</text>
</g>
<!-- 1712824288640&#45;&gt;1712824289264 -->
<g id="edge12" class="edge">
<title>1712824288640&#45;&gt;1712824289264</title>
<path fill="none" stroke="black" d="M427.93,-107.28C435.89,-109.36 444.82,-111.69 453.36,-113.92"/>
<polygon fill="black" stroke="black" points="452.23,-117.25 462.79,-116.39 454,-110.47 452.23,-117.25"/>
</g>
<!-- 1712824289168 -->
<g id="node15" class="node">
<title>1712824289168</title>
<polygon fill="none" stroke="gainsboro" points="277,-27.5 277,-63.5 331,-63.5 331,-27.5 277,-27.5"/>
<text text-anchor="middle" x="304" y="-41.8" font-family="Times New Roman,serif" font-size="14.00" fill="gainsboro">0.5</text>
</g>
<!-- 1712824289168&#45;&gt;1712824288640 -->
<g id="edge5" class="edge">
<title>1712824289168&#45;&gt;1712824288640</title>
<path fill="none" stroke="gainsboro" d="M330.96,-60.53C341.22,-66.47 353.19,-73.4 364.25,-79.8"/>
<polygon fill="gainsboro" stroke="gainsboro" points="362.35,-82.75 372.76,-84.73 365.86,-76.69 362.35,-82.75"/>
</g>
<!-- 1712824288688&#45;&gt;1712824289120 -->
<g id="edge1" class="edge">
<title>1712824288688&#45;&gt;1712824289120</title>
<path fill="none" stroke="black" d="M233.96,-100.5C241.66,-100.5 250.33,-100.5 258.85,-100.5"/>
<polygon fill="black" stroke="black" points="258.76,-104 268.76,-100.5 258.76,-97 258.76,-104"/>
</g>
<!-- 1712824289216&#45;&gt;1712824289264 -->
<g id="edge2" class="edge">
<title>1712824289216&#45;&gt;1712824289264</title>
<path fill="none" stroke="black" d="M330.72,-151.05C362.53,-145.55 416.88,-136.15 453.12,-129.88"/>
<polygon fill="black" stroke="black" points="453.45,-133.37 462.71,-128.22 452.26,-126.48 453.45,-133.37"/>
</g>
</g>
</svg>
